<svg width="42" height="41" viewBox="0 0 42 41" fill="none" xmlns="http://www.w3.org/2000/svg">
<path d="M17.8499 6.15002C20.0451 6.14966 22.1949 6.75999 24.0476 7.90951C25.9002 9.05904 27.3789 10.7001 28.3104 12.6406C29.2419 14.581 29.5877 16.7404 29.3072 18.8658C29.0267 20.9911 28.1315 22.9944 26.7266 24.641L35.3933 33.0993C35.5793 33.2801 35.6892 33.5224 35.7014 33.7783C35.7135 34.0343 35.627 34.2854 35.4589 34.4822C35.2907 34.679 35.0532 34.8072 34.7931 34.8415C34.5329 34.8758 34.2691 34.8138 34.0535 34.6676L33.9065 34.5507L25.2419 26.0904C23.8164 27.2488 22.1261 28.0551 20.3139 28.441C18.5018 28.8269 16.621 28.7811 14.8308 28.3074C13.0406 27.8338 11.3936 26.9462 10.0291 25.7198C8.66457 24.4934 7.62267 22.9643 6.99152 21.2617C6.36037 19.5591 6.15853 17.7332 6.40308 15.9384C6.64763 14.1436 7.33138 12.4327 8.39649 10.9504C9.46159 9.46804 10.8767 8.25793 12.5222 7.42237C14.1677 6.58682 15.9951 6.1504 17.8499 6.15002ZM17.8499 8.20002C15.3436 8.20002 12.9399 9.17194 11.1677 10.902C9.3955 12.632 8.39988 14.9784 8.39988 17.425C8.39988 19.8716 9.3955 22.2181 11.1677 23.9481C12.9399 25.6781 15.3436 26.65 17.8499 26.65C20.3562 26.65 22.7598 25.6781 24.532 23.9481C26.3043 22.2181 27.2999 19.8716 27.2999 17.425C27.2999 14.9784 26.3043 12.632 24.532 10.902C22.7598 9.17194 20.3562 8.20002 17.8499 8.20002Z" fill="white" fill-opacity="0.63"/>
</svg>
