<svg width="17" height="18" viewBox="0 0 17 18" fill="none" xmlns="http://www.w3.org/2000/svg">
<path d="M10.766 18C10.9163 18 11.0604 17.9323 11.1667 17.8117C11.273 17.6912 11.3327 17.5276 11.3327 17.3571C11.3327 17.1866 11.273 17.0231 11.1667 16.9026C11.0604 16.782 10.9163 16.7143 10.766 16.7143H3.3998C2.79868 16.7143 2.22217 16.4434 1.79712 15.9611C1.37206 15.4789 1.13327 14.8248 1.13327 14.1429V3.85714C1.13327 3.17516 1.37206 2.5211 1.79712 2.03887C2.22217 1.55663 2.79868 1.28571 3.3998 1.28571H10.766C10.9163 1.28571 11.0604 1.21798 11.1667 1.09743C11.273 0.976867 11.3327 0.813353 11.3327 0.642857C11.3327 0.472361 11.273 0.308848 11.1667 0.188289C11.0604 0.0677295 10.9163 0 10.766 0H3.3998C2.49811 0 1.63336 0.406377 0.995778 1.12973C0.358192 1.85309 0 2.83416 0 3.85714V14.1429C0 15.1658 0.358192 16.1469 0.995778 16.8703C1.63336 17.5936 2.49811 18 3.3998 18H10.766ZM12.0647 4.04486C12.1174 3.98499 12.1799 3.93749 12.2488 3.90508C12.3176 3.87268 12.3914 3.85599 12.4659 3.85599C12.5405 3.85599 12.6143 3.87268 12.6831 3.90508C12.7519 3.93749 12.8145 3.98499 12.8671 4.04486L16.8335 8.54486C16.8863 8.60457 16.9282 8.67551 16.9567 8.75361C16.9853 8.83172 17 8.91544 17 9C17 9.08456 16.9853 9.16828 16.9567 9.24639C16.9282 9.32449 16.8863 9.39543 16.8335 9.45514L12.8671 13.9551C12.8144 14.0149 12.7519 14.0623 12.683 14.0947C12.6142 14.127 12.5404 14.1437 12.4659 14.1437C12.3914 14.1437 12.3176 14.127 12.2488 14.0947C12.18 14.0623 12.1174 14.0149 12.0647 13.9551C12.0121 13.8954 11.9703 13.8244 11.9418 13.7463C11.9132 13.6682 11.8986 13.5845 11.8986 13.5C11.8986 13.4155 11.9132 13.3318 11.9418 13.2537C11.9703 13.1756 12.0121 13.1046 12.0647 13.0449L15.0645 9.64286H5.0997C4.94942 9.64286 4.80529 9.57513 4.69903 9.45457C4.59276 9.33401 4.53306 9.1705 4.53306 9C4.53306 8.8295 4.59276 8.66599 4.69903 8.54543C4.80529 8.42487 4.94942 8.35714 5.0997 8.35714H15.0645L12.0647 4.95514C12.012 4.89543 11.9701 4.82449 11.9415 4.74639C11.913 4.66829 11.8983 4.58456 11.8983 4.5C11.8983 4.41544 11.913 4.33171 11.9415 4.25361C11.9701 4.17551 12.012 4.10457 12.0647 4.04486Z" fill="#EA3232"/>
</svg>
