<svg width="17" height="15" viewBox="0 0 17 15" fill="none" xmlns="http://www.w3.org/2000/svg">
<path d="M13.1811 4.16667C12.8342 4.15823 12.5041 4.02383 12.2587 3.79121C12.0134 3.55859 11.8716 3.24553 11.8627 2.91667C11.8627 2.58515 12.0016 2.2672 12.2489 2.03278C12.4961 1.79836 12.8314 1.66667 13.1811 1.66667C13.5307 1.66667 13.8661 1.79836 14.1133 2.03278C14.3605 2.2672 14.4994 2.58515 14.4994 2.91667C14.4905 3.24553 14.3488 3.55859 14.1034 3.79121C13.8581 4.02383 13.5279 4.15823 13.1811 4.16667ZM11.8627 0C10.5842 0.0108725 9.36135 0.497249 8.45728 1.35444C7.55321 2.21164 7.04024 3.37112 7.02877 4.58333C7.05567 5.39386 7.26546 6.1895 7.64401 6.91667L0.876465 13.3333V15H4.39207V13.3333H6.14987V11.6667H7.90768L10.7202 9C11.0932 9.0961 11.4765 9.15201 11.8627 9.16667C13.1412 9.15579 14.3641 8.66942 15.2682 7.81222C16.1723 6.95503 16.6852 5.79554 16.6967 4.58333C16.6852 3.37112 16.1723 2.21164 15.2682 1.35444C14.3641 0.497249 13.1412 0.0108725 11.8627 0Z" fill="white"/>
</svg>
