<svg width="37" height="32" viewBox="0 0 37 32" fill="none" xmlns="http://www.w3.org/2000/svg">
<path d="M4.09762 2.30877C5.87784 0.848604 8.11904 0.106147 10.3978 0.22167C12.6765 0.337193 14.835 1.3027 16.4655 2.93577L18.5008 4.97352L20.5308 2.93852C22.1611 1.3043 24.3199 0.33783 26.5993 0.221793C28.8787 0.105757 31.1206 0.848197 32.9014 2.30877C37.2461 5.87186 37.5973 12.5113 33.6512 16.5318L19.291 31.1654C19.0811 31.3793 18.797 31.4993 18.5008 31.4993C18.2047 31.4993 17.9206 31.3793 17.7107 31.1654L3.3487 16.5309C-0.597442 12.5104 -0.248067 5.87277 4.09762 2.30877ZM14.8987 4.57294C13.6594 3.33157 12.0187 2.59763 10.2866 2.50981C8.55451 2.42198 6.85095 2.98635 5.49781 4.09627C2.19577 6.80502 1.9297 11.8513 4.92895 14.9084L18.4999 28.7372L32.07 14.9074C35.0693 11.8513 34.8023 6.80502 31.5003 4.09719C30.1467 2.98718 28.4427 2.42295 26.7102 2.51112C24.9778 2.59928 23.3369 3.33374 22.0976 4.57569L19.2838 7.39627C19.0745 7.60622 18.793 7.72382 18.4999 7.72382C18.2068 7.72382 17.9254 7.60622 17.7161 7.39627L14.8987 4.57294Z" fill="white" fill-opacity="0.63"/>
</svg>
