<svg width="29" height="32" viewBox="0 0 29 32" fill="none" xmlns="http://www.w3.org/2000/svg">
<path d="M23.7901 31.1604H5.21029C4.07759 31.1604 2.99129 30.7528 2.19035 30.0272C1.38941 29.3017 0.939453 28.3176 0.939453 27.2915V26.0117C0.939453 19.8695 7.02283 14.8694 14.5002 14.8694C21.9776 14.8694 28.061 19.8664 28.061 26.0117V27.2915C28.061 28.3176 27.611 29.3017 26.8101 30.0272C26.0091 30.7528 24.9228 31.1604 23.7901 31.1604ZM14.5002 16.42C7.96412 16.42 2.64779 20.7222 2.64779 26.0148V27.2946C2.64779 27.9103 2.91776 28.5007 3.39833 28.9361C3.87889 29.3714 4.53067 29.616 5.21029 29.616H23.7901C24.4697 29.616 25.1215 29.3714 25.6021 28.9361C26.0826 28.5007 26.3526 27.9103 26.3526 27.2946V26.0117C26.3526 20.7222 21.0363 16.42 14.5002 16.42ZM14.5002 12.5496C13.1743 12.5499 11.8781 12.194 10.7755 11.5269C9.67286 10.8598 8.81339 9.91154 8.30576 8.80195C7.79812 7.69236 7.66513 6.47132 7.92359 5.29325C8.18206 4.11518 8.82037 3.03301 9.7578 2.18359C10.6952 1.33417 11.8897 0.755655 13.1901 0.521218C14.4905 0.286781 15.8384 0.406948 17.0634 0.866521C18.2884 1.3261 19.3355 2.10443 20.0721 3.1031C20.8088 4.10176 21.202 5.27589 21.202 6.477C21.2006 8.08691 20.4942 9.63054 19.2377 10.7691C17.9812 11.9076 16.2774 12.5479 14.5002 12.5496ZM14.5002 1.95352C13.5121 1.95321 12.5461 2.21838 11.7244 2.71548C10.9027 3.21258 10.2622 3.91928 9.88389 4.74618C9.50561 5.57309 9.40654 6.48305 9.59923 7.36096C9.79191 8.23888 10.2677 9.0453 10.9664 9.67823C11.6651 10.3112 12.5553 10.7422 13.5244 10.9167C14.4935 11.0913 15.498 11.0015 16.4109 10.6588C17.3237 10.3162 18.1038 9.73593 18.6525 8.99156C19.2013 8.24718 19.494 7.3721 19.4937 6.477C19.4923 5.27768 18.9658 4.12783 18.0296 3.27977C17.0935 2.43172 15.8241 1.95475 14.5002 1.95352Z" fill="white" fill-opacity="0.63"/>
</svg>
