<svg width="16" height="16" viewBox="0 0 16 16" fill="none" xmlns="http://www.w3.org/2000/svg">
<path d="M0.849021 15.6739C0.91626 15.682 0.984234 15.682 1.05147 15.6739L4.42568 14.8306C4.57537 14.795 4.71247 14.7192 4.82215 14.6114L15.1894 4.21357C15.5036 3.89757 15.68 3.4701 15.68 3.02453C15.68 2.57896 15.5036 2.15149 15.1894 1.83549L13.8566 0.494653C13.6999 0.33784 13.5138 0.213439 13.309 0.128563C13.1042 0.043687 12.8847 0 12.663 0C12.4413 0 12.2217 0.043687 12.0169 0.128563C11.8121 0.213439 11.626 0.33784 11.4693 0.494653L1.10209 10.8587C0.99309 10.9689 0.914604 11.1054 0.874327 11.2551L0.0307753 14.6282C0.000456306 14.7373 -0.00756844 14.8514 0.00717973 14.9637C0.0219279 15.076 0.059147 15.1842 0.116617 15.2818C0.174086 15.3793 0.250629 15.4644 0.341679 15.5317C0.432729 15.5991 0.53642 15.6475 0.646568 15.6739C0.713808 15.682 0.781781 15.682 0.849021 15.6739ZM12.6587 1.68369L14 3.02453L12.6587 4.36536L11.3259 3.02453L12.6587 1.68369ZM2.4602 11.8875L10.1281 4.21357L11.4693 5.5544L3.79302 13.2284L2.01312 13.6669L2.4602 11.8875Z" fill="white"/>
</svg>
