<svg width="17" height="16" viewBox="0 0 17 16" fill="none" xmlns="http://www.w3.org/2000/svg">
<path d="M8.78658 0C9.83552 0 10.8415 0.421427 11.5832 1.17157C12.3249 1.92172 12.7416 2.93913 12.7416 4C12.7416 5.06087 12.3249 6.07828 11.5832 6.82843C10.8415 7.57857 9.83552 8 8.78658 8C7.73763 8 6.73165 7.57857 5.98993 6.82843C5.24821 6.07828 4.83152 5.06087 4.83152 4C4.83152 2.93913 5.24821 1.92172 5.98993 1.17157C6.73165 0.421427 7.73763 0 8.78658 0ZM8.78658 10C13.1569 10 16.6967 11.79 16.6967 14V16H0.876465V14C0.876465 11.79 4.41624 10 8.78658 10Z" fill="white"/>
</svg>
